<?xml version="1.0" encoding="UTF-8"?>
<!DOCTYPE svg PUBLIC "-//W3C//DTD SVG 1.1//EN" "http://www.w3.org/Graphics/SVG/1.1/DTD/svg11.dtd">
<!-- Creator: CorelDRAW 2019 (64-Bit) -->
<svg xmlns="http://www.w3.org/2000/svg" xml:space="preserve" width="1000mm" height="500mm" version="1.1" style="shape-rendering:geometricPrecision; text-rendering:geometricPrecision; image-rendering:optimizeQuality; fill-rule:evenodd; clip-rule:evenodd"
viewBox="0 0 100000 50000"
 xmlns:xlink="http://www.w3.org/1999/xlink">
 <defs>
  <style type="text/css">
   <![CDATA[
    .fil1 {fill:#0F1593}
    .fil0 {fill:#0F1693}
   ]]>
  </style>
 </defs>
 <g id="Слой_x0020_1">
  <metadata id="CorelCorpID_0Corel-Layer"/>
  <g id="_2295853631520">
   <path class="fil0" d="M74612.76 22829.99c-8.98,4.8 -21.37,8.88 -28.59,10.92 -259.82,73.52 -3137.66,24.31 -3699.97,25.31l-11153.04 -0.29c-14870.61,-5.75 -29787.73,-46.6 -44648.95,0.75l0 2171.81 59004.34 0c618.45,-0.46 554.14,-122.34 552.19,478.47 -4.37,1337.12 -0.06,2674.99 -0.06,4012.21 197.96,-16.48 1601.62,-537.53 1861.51,-641.5l4401.09 -1856.38c1252.58,-472.34 3147.64,-1314.98 4464.51,-1866.59 312.96,-131.11 564.05,-240.47 883.61,-367.86l2203.15 -925.63c161.47,-64.22 340.7,-108.07 431.09,-231.47 -223.2,-118.06 -591.87,-216.28 -857.33,-320.54l-3573.74 -1284.98c-818.83,-270.45 -1813.61,-680.01 -2677.96,-966.13l-3539.41 -1282.5c-597.27,-234.57 -1186.31,-412.21 -1782.11,-647.29 -251.22,-99.12 -1649.4,-611.27 -1814.41,-614.93 0,539.87 54.68,4126.13 -25.92,4306.62z"/>
   <path class="fil1" d="M74612.76 22829.99c-19536.79,0 -39073.54,0 -58610.34,0l-868 15.38c-7.9,2.11 -20.47,8.18 -26.64,10.13 -6.06,1.92 -17.71,6.23 -25.57,11.18 14861.22,-47.35 29778.34,-6.5 44648.95,-0.75l11153.04 0.29c562.31,-1 3440.15,48.21 3699.97,-25.31 7.22,-2.04 19.61,-6.12 28.59,-10.92z"/>
  </g>
 </g>
</svg>
