<svg width="2560" height="1440" viewBox="0 0 2560 1440" fill="none" xmlns="http://www.w3.org/2000/svg">
<path d="M1007.47 720.089L1020.83 622.123L1069.47 720.089H1072.94L1121.01 622.863L1134.45 720.089H1147.77L1128.2 584.138H1126.03L1071.29 695.69L1016.02 584.138H1013.81L994.349 720.089H1007.47Z" fill="#2A3A87" stroke="#2A3A87" stroke-width="5.33333" stroke-miterlimit="10"/>
<path d="M1246 700.995C1242.6 703.94 1238.48 706.304 1233.64 708.084C1228.8 709.864 1223.82 710.753 1218.7 710.753C1208.09 710.753 1199.17 707.02 1191.96 699.551C1184.74 692.081 1181.01 682.508 1180.76 670.828H1271.24C1271.12 657.089 1267.42 645.629 1260.14 636.448C1249.9 623.448 1236.21 616.947 1219.07 616.947C1202.42 616.947 1189.13 623.295 1179.2 635.987C1171.37 645.967 1167.45 657.335 1167.45 670.089C1167.45 683.644 1172.08 695.799 1181.33 706.549C1190.58 717.301 1203.41 722.676 1219.81 722.676C1227.21 722.676 1233.84 721.551 1239.7 719.303C1245.56 717.055 1250.83 713.773 1255.52 709.46C1260.2 705.148 1264.34 699.479 1267.91 692.455L1257.01 686.724C1253.06 693.292 1249.39 698.049 1246 700.995ZM1182.06 659.645C1184.71 650.404 1188.62 643.472 1193.81 638.851C1200.9 632.505 1209.38 629.332 1219.25 629.332C1225.24 629.332 1230.94 630.595 1236.37 633.121C1241.8 635.648 1246.16 638.975 1249.47 643.103C1252.77 647.231 1255.28 652.745 1257.01 659.645H1182.06Z" fill="#2A3A87" stroke="#2A3A87" stroke-width="5.33333" stroke-miterlimit="10"/>
<path d="M1364.22 698.206L1323.7 619.536H1320.19L1285.82 720.089H1299.32L1324.15 646.009L1362.92 720.089H1365.33L1404 646.11L1428.93 720.089H1442.43L1408.27 619.536H1404.58L1364.22 698.206Z" fill="#2A3A87" stroke="#2A3A87" stroke-width="5.33333" stroke-miterlimit="10"/>
<path d="M1540.89 579.887C1518.86 580.441 1503.83 581.828 1495.8 584.045C1487.78 586.264 1481.23 589.313 1476.17 593.195C1471.11 597.077 1466.62 603.44 1462.7 612.28C1458.78 621.123 1456.82 634.137 1456.82 651.328C1456.82 675.973 1462.16 694.025 1472.84 705.487C1483.51 716.945 1496.54 722.676 1511.91 722.676C1526.9 722.676 1539.4 717.5 1549.4 707.149C1559.4 696.799 1564.4 684.445 1564.4 670.089C1564.4 655.611 1559.38 643.135 1549.35 632.659C1539.32 622.185 1526.83 616.947 1511.9 616.947C1502.08 616.947 1493.14 619.628 1485.09 624.988C1477.03 630.348 1471.25 638.791 1467.73 650.311L1469.02 636.171C1469.76 628.532 1471.63 621.615 1474.63 615.423C1477.62 609.231 1481.31 604.609 1485.69 601.559C1490.08 598.509 1495.22 596.445 1501.11 595.367C1507.01 594.291 1515.39 593.565 1526.26 593.195C1541.26 592.765 1551.85 592.025 1558.02 590.977V578.593C1553.39 579.272 1547.68 579.701 1540.89 579.887ZM1540.02 698.693C1532.52 706.488 1523.14 710.384 1511.9 710.384C1500.73 710.384 1491.38 706.488 1483.88 698.693C1476.38 690.9 1472.63 681.457 1472.63 670.367C1472.63 659.216 1476.52 649.635 1484.3 641.624C1492.08 633.615 1501.28 629.609 1511.9 629.609C1522.59 629.609 1531.82 633.615 1539.6 641.624C1547.38 649.635 1551.27 659.216 1551.27 670.367C1551.27 681.457 1547.52 690.9 1540.02 698.693V698.693Z" fill="#2A3A87" stroke="#2A3A87" stroke-width="5.33333" stroke-miterlimit="10"/>
<path d="M1588.52 756.872H1601.46V702.806C1606.88 709.4 1612.94 714.359 1619.65 717.686C1626.36 721.012 1633.71 722.676 1641.71 722.676C1655.93 722.676 1668.07 717.516 1678.14 707.196C1688.2 696.876 1693.23 684.322 1693.23 669.535C1693.23 655.056 1688.15 642.672 1678 632.382C1667.84 622.092 1655.62 616.947 1641.34 616.947C1633.16 616.947 1625.74 618.703 1619.09 622.215C1612.44 625.727 1606.57 630.995 1601.46 638.019V619.535H1588.52V756.872ZM1660.19 634.732C1666.28 638.272 1671.12 643.242 1674.71 649.643C1678.31 656.043 1680.11 662.812 1680.11 669.951C1680.11 677.03 1678.3 683.799 1674.67 690.26C1671.04 696.722 1666.17 701.754 1660.05 705.354C1653.94 708.955 1647.41 710.754 1640.46 710.754C1633.39 710.754 1626.68 708.97 1620.31 705.4C1613.95 701.83 1609.06 696.999 1605.65 690.907C1602.24 684.815 1600.54 677.952 1600.54 670.32C1600.54 658.69 1604.36 648.966 1612.01 641.148C1619.67 633.334 1629.09 629.424 1640.28 629.424C1647.47 629.424 1654.11 631.195 1660.19 634.732V634.732Z" fill="#2A3A87" stroke="#2A3A87" stroke-width="5.33333" stroke-miterlimit="10"/>
<path d="M1804.88 619.535V638.019C1799.82 630.995 1793.95 625.727 1787.27 622.215C1780.58 618.703 1773.11 616.947 1764.86 616.947C1750.56 616.947 1738.33 622.093 1728.17 632.382C1718 642.673 1712.92 655.057 1712.92 669.535C1712.92 684.322 1717.95 696.877 1728.03 707.197C1738.1 717.517 1750.25 722.677 1764.49 722.677C1772.5 722.677 1779.88 721.013 1786.62 717.686C1793.37 714.359 1799.45 709.399 1804.88 702.806V720.089H1817.63V619.535H1804.88ZM1794.21 641.149C1801.88 648.966 1805.71 658.69 1805.71 670.321C1805.71 677.953 1804 684.814 1800.58 690.907C1797.17 696.999 1792.29 701.83 1785.95 705.399C1779.61 708.97 1772.91 710.754 1765.83 710.754C1758.81 710.754 1752.24 708.955 1746.12 705.354C1739.99 701.754 1735.12 696.722 1731.49 690.259C1727.86 683.799 1726.04 677.03 1726.04 669.951C1726.04 662.813 1727.84 656.043 1731.44 649.643C1735.04 643.242 1739.89 638.273 1745.98 634.733C1752.07 631.195 1758.72 629.425 1765.92 629.425C1777.12 629.425 1786.55 633.334 1794.21 641.149V641.149Z" fill="#2A3A87" stroke="#2A3A87" stroke-width="5.33333" stroke-miterlimit="10"/>
<path d="M1865.69 597.447V720.088H1879.55V597.447H1909.86V584.139H1835.37V597.447H1865.69Z" fill="#2A3A87" stroke="#2A3A87" stroke-width="5.33333" stroke-miterlimit="10"/>
<path d="M2000.98 700.995C1997.58 703.94 1993.47 706.304 1988.62 708.084C1983.78 709.864 1978.8 710.753 1973.68 710.753C1963.07 710.753 1954.16 707.02 1946.94 699.551C1939.72 692.081 1935.99 682.508 1935.74 670.828H2026.22C2026.1 657.089 2022.4 645.629 2015.12 636.448C2004.89 623.448 1991.2 616.947 1974.05 616.947C1957.4 616.947 1944.11 623.295 1934.18 635.987C1926.35 645.967 1922.44 657.335 1922.44 670.089C1922.44 683.644 1927.06 695.799 1936.31 706.549C1945.56 717.301 1958.39 722.676 1974.79 722.676C1982.19 722.676 1988.82 721.551 1994.68 719.303C2000.54 717.055 2005.81 713.773 2010.5 709.46C2015.19 705.148 2019.32 699.479 2022.9 692.455L2011.99 686.724C2008.04 693.292 2004.37 698.049 2000.98 700.995ZM1937.04 659.645C1939.69 650.404 1943.61 643.472 1948.79 638.851C1955.88 632.505 1964.36 629.332 1974.24 629.332C1980.22 629.332 1985.92 630.595 1991.35 633.121C1996.78 635.648 2001.15 638.975 2004.45 643.103C2007.75 647.231 2010.26 652.745 2011.99 659.645H1937.04Z" fill="#2A3A87" stroke="#2A3A87" stroke-width="5.33333" stroke-miterlimit="10"/>
<path d="M2073.38 667.13L2035.28 720.089H2050.72L2081.15 677.857L2111.76 720.089H2127.52L2088.95 667.037L2123.17 619.536H2107.62L2081.15 656.32L2054.41 619.536H2038.88L2073.38 667.13Z" fill="#2A3A87" stroke="#2A3A87" stroke-width="5.33333" stroke-miterlimit="10"/>
<path d="M938.121 654.55C938.121 805.266 815.941 927.446 665.225 927.446C514.509 927.446 392.329 805.266 392.329 654.55C392.329 503.834 514.509 381.654 665.225 381.654C815.941 381.654 938.121 503.834 938.121 654.55Z" stroke="#2A3A87" stroke-width="26.6667" stroke-miterlimit="10"/>
<path d="M727.327 726.459C582.721 729.987 548.045 790.239 441.037 743.395C481.009 863.469 651.343 927.851 769.135 868.667C855.595 825.225 818.413 726.433 730.236 726.423C729.268 726.423 728.307 726.435 727.327 726.459Z" fill="url(#paint0_linear_1_2)"/>
<path d="M682.255 727.591C665.176 729.585 648.223 732.529 631.441 736.272C604.007 742.391 577.147 751.263 549.445 756.149C521.753 761.036 494.223 759.528 467.327 751.168C458.721 748.493 450.311 745.253 442.047 741.667C441.717 741.524 441.393 741.471 441.088 741.485C440.004 741.46 438.907 742.207 438.999 743.403C438.935 743.848 439.036 744.296 439.357 744.655C459.248 802.647 507.819 846.116 563.088 870.168C620.16 895.005 687.227 901.365 746.516 880.435C773.695 870.841 801.745 855.416 814.179 828.003C823.933 806.493 821.279 781.591 808.087 762.123C793.171 740.111 767.985 727.749 741.973 725.028C736.655 724.472 731.265 724.237 725.848 724.237C711.273 724.237 696.485 725.929 682.255 727.591M520.561 763.119C544.995 762.636 568.764 756.412 592.249 750.205C622.964 742.089 653.74 734.719 685.381 731.239C718.144 727.635 753.557 724.245 782.628 742.917C803.153 756.103 817.361 778.948 816.12 803.789C814.656 833.113 792.296 854.908 767.372 867.313C711.953 894.9 645.639 894.533 587.669 875.32C531.077 856.563 478.296 818.367 451.611 763.96C448.899 758.429 446.513 752.761 444.411 746.981C467.751 756.655 492.261 763.147 517.645 763.147C518.617 763.147 519.587 763.137 520.561 763.119" fill="url(#paint1_linear_1_2)"/>
<path d="M733.04 632.013C822.979 676.061 840.285 726.617 855.34 796.821C942.683 678.731 907.44 482.019 765.931 452.405C762.157 452.133 758.484 452.001 754.944 452C643.633 451.988 647.455 582.609 733.04 632.013Z" fill="url(#paint2_linear_1_2)"/>
<path d="M731.987 454.427C708.629 459.489 688.037 473.633 677.985 495.721C656.799 542.276 683.255 598.055 721.473 626.784C736.765 638.28 754.857 645.421 770.795 656.031C785.757 665.989 799.652 677.629 811.305 691.357C831.823 715.524 843.036 745.061 850.675 775.461C852.592 783.087 854.313 790.76 855.972 798.447C855.9 798.885 856.028 799.295 856.279 799.631C856.764 800.679 857.981 800.827 858.9 800.361C859.228 800.225 859.533 799.996 859.784 799.653C897.643 748.079 913.385 681.487 905.564 618.217C898.387 560.153 870.264 502.496 818.809 471.612C805.995 463.92 792.049 458.108 777.603 454.291C770.727 452.475 763.557 451.684 756.357 451.684C748.143 451.684 739.889 452.713 731.987 454.427M832.437 714.948C817.039 687.239 793.676 665.577 767.015 648.824C751.693 639.197 734.696 632.417 720.535 621.024C710.007 612.556 700.809 602.423 693.477 591.072C680.317 570.699 672.713 545.975 675.173 521.612C677.52 498.355 690.095 477.524 710.852 466.301C723.16 459.647 737.16 456.664 751.049 455.984C767.376 455.185 782.259 458.877 797.257 465.163C852.255 488.215 886.277 541.447 898.228 598.265C910.967 658.836 900.781 724.832 869.212 778.189C866.041 783.547 862.648 788.761 859.06 793.844C853.115 766.679 846.027 739.401 832.437 714.948" fill="url(#paint3_linear_1_2)"/>
<path d="M728.829 660.328C696.151 611.541 709.66 655.009 645.345 562.936C576.016 724.536 760.237 746.197 728.829 660.328Z" fill="url(#paint4_linear_1_2)"/>
<path d="M643.652 561.852C643.436 562.115 643.295 562.425 643.264 562.764C629.544 595.357 620.355 634.255 635 668.155C644.189 689.428 663.237 706.357 686.275 710.759C702.827 713.923 723.335 710.172 731.309 693.519C735.673 684.405 734.996 673.837 732.256 664.356C729.193 653.759 719.636 642.733 711.549 635.196C705.523 629.579 698.419 625.351 692.473 619.601C674.959 602.663 660.969 581.78 647.072 561.927C646.787 561.519 646.425 561.265 646.039 561.139C645.733 560.971 645.4 560.876 645.075 560.876C644.511 560.876 643.972 561.163 643.652 561.852M695.116 707.809C673.805 706.903 654.277 693.641 643.367 675.691C623.292 642.661 631.941 600.836 645.78 567.044C662.097 590.483 678.813 615.553 702.027 632.62C717.223 643.795 731.981 661.931 730.357 681.704C728.913 699.299 713.185 707.851 697.06 707.851C696.412 707.851 695.764 707.837 695.116 707.809" fill="url(#paint5_linear_1_2)"/>
<path d="M426.496 624.273C399.175 736.969 544.977 781.115 592.105 674.733C643.223 575.621 600.429 433.756 751.303 429.375C725.877 420.436 699.751 416.248 673.885 416.248C555.852 416.245 443.167 503.441 426.496 624.273Z" fill="url(#paint6_linear_1_2)"/>
<path d="M528.021 460.517C496.448 482.371 469.629 511.164 451 544.804C441.511 561.941 434.168 580.3 429.344 599.288C426.887 608.964 425.465 618.811 423.492 628.575C421.845 636.724 420.964 645.06 421.135 653.377C421.713 681.44 435.035 707.777 458.7 723.276C480.997 737.879 509.725 741.269 534.919 732.725C566.268 722.093 584.712 696.331 597.895 667.352C611.388 637.696 617.504 605.485 623.533 573.669C629.147 544.044 634.232 512.972 648.596 486.076C663.625 457.933 689.156 440.915 720.201 434.696C730.372 432.66 740.705 431.735 751.06 431.383C752.119 431.6 752.872 430.901 753.119 430.023C753.472 428.939 752.995 427.571 751.677 427.392C726.493 418.668 700.283 414.491 674.115 414.491C622.468 414.491 571.007 430.769 528.021 460.517M488.737 731.501C461.897 725.683 439.083 706.671 429.937 680.571C424.577 665.275 423.969 648.7 426.749 632.812C430.072 613.836 433.752 595.067 440.529 576.96C454.109 540.684 477.197 508.352 506.136 482.719C564.433 431.08 646.552 406.832 723.168 423.488C729.012 424.759 734.795 426.265 740.517 427.983C712.636 430.243 684.801 438.111 664.297 458.105C644.815 477.104 635.179 503.505 628.711 529.359C621.188 559.416 617.233 590.24 609.655 620.289C605.719 635.893 600.871 651.343 594.145 665.985C587.057 681.417 579.219 696.293 566.957 708.299C550.651 724.263 528.695 733.367 506.208 733.368C500.389 733.368 494.539 732.759 488.737 731.501" fill="url(#paint7_linear_1_2)"/>
<defs>
<linearGradient id="paint0_linear_1_2" x1="441.037" y1="808.694" x2="818.199" y2="808.694" gradientUnits="userSpaceOnUse">
<stop stop-color="#3452AC"/>
<stop offset="0.43352" stop-color="#3452AC"/>
<stop offset="0.977653" stop-color="#7CD5F4"/>
<stop offset="1" stop-color="#7CD5F4"/>
</linearGradient>
<linearGradient id="paint1_linear_1_2" x1="440.76" y1="808.631" x2="818.365" y2="808.631" gradientUnits="userSpaceOnUse">
<stop stop-color="#3452AC"/>
<stop offset="0.43352" stop-color="#3452AC"/>
<stop offset="0.977653" stop-color="#7CD5F4"/>
<stop offset="1" stop-color="#7CD5F4"/>
</linearGradient>
<linearGradient id="paint2_linear_1_2" x1="866" y1="798.5" x2="786.394" y2="452" gradientUnits="userSpaceOnUse">
<stop stop-color="#7CF4C2"/>
<stop offset="0.317318" stop-color="#7CD5F4"/>
<stop offset="1" stop-color="#9FDFE4"/>
</linearGradient>
<linearGradient id="paint3_linear_1_2" x1="788.991" y1="799.04" x2="788.991" y2="453.656" gradientUnits="userSpaceOnUse">
<stop stop-color="#7CD5F4"/>
<stop offset="0.317318" stop-color="#7CD5F4"/>
<stop offset="1" stop-color="#9FDFE4"/>
</linearGradient>
<linearGradient id="paint4_linear_1_2" x1="629.538" y1="572.062" x2="709.148" y2="709.951" gradientUnits="userSpaceOnUse">
<stop stop-color="#6BCA89"/>
<stop offset="0.955307" stop-color="#B0E3C6"/>
<stop offset="1" stop-color="#B0E3C6"/>
</linearGradient>
<linearGradient id="paint5_linear_1_2" x1="629.402" y1="571.779" x2="709.252" y2="710.083" gradientUnits="userSpaceOnUse">
<stop stop-color="#6BCA89"/>
<stop offset="0.955307" stop-color="#B0E3C6"/>
<stop offset="1" stop-color="#B0E3C6"/>
</linearGradient>
<linearGradient id="paint6_linear_1_2" x1="587.208" y1="416.247" x2="587.208" y2="735.391" gradientUnits="userSpaceOnUse">
<stop stop-color="#2A3A87"/>
<stop offset="0.259218" stop-color="#2A3A87"/>
<stop offset="1" stop-color="#3453AC"/>
</linearGradient>
<linearGradient id="paint7_linear_1_2" x1="587.173" y1="416.081" x2="587.173" y2="735.557" gradientUnits="userSpaceOnUse">
<stop stop-color="#2A3A87"/>
<stop offset="0.259218" stop-color="#2A3A87"/>
<stop offset="1" stop-color="#3453AC"/>
</linearGradient>
</defs>
</svg>
